<?xml version="1.0" standalone="no"?>
<!DOCTYPE svg PUBLIC "-//W3C//DTD SVG 20010904//EN"
 "http://www.w3.org/TR/2001/REC-SVG-20010904/DTD/svg10.dtd">
<svg version="1.0" xmlns="http://www.w3.org/2000/svg"
 width="260.000000pt" height="260.000000pt" viewBox="0 0 260.000000 260.000000"
 preserveAspectRatio="xMidYMid meet">
<metadata>
Created by potrace 1.11, written by Peter Selinger 2001-2013
</metadata>
<g transform="translate(0.000000,260.000000) scale(0.100000,-0.100000)"
fill="#000000" stroke="none">
<path d="M1294 2358 c-101 -21 -164 -140 -158 -299 4 -117 49 -232 120 -304
92 -93 172 -65 256 90 18 33 34 66 35 73 8 34 12 47 13 47 6 0 11 50 12 107 1
121 -53 217 -149 267 -24 12 -43 19 -43 16 0 -2 -10 -1 -22 4 -13 4 -41 4 -64
-1z"/>
<path d="M2090 2207 c-81 -40 -224 -146 -264 -196 -11 -13 -29 -33 -41 -45
-52 -52 -165 -246 -165 -283 0 -7 -4 -13 -8 -13 -5 0 -9 -6 -10 -12 0 -7 -10
-47 -21 -88 -28 -105 -32 -136 -36 -293 -2 -120 0 -150 22 -234 13 -53 31
-109 39 -125 29 -55 61 -7 80 119 3 21 7 49 10 63 2 14 7 40 10 59 3 18 8 42
10 52 7 33 13 63 20 94 20 105 99 316 164 440 66 127 208 359 229 375 17 13
41 62 41 85 0 32 -19 32 -80 2z"/>
<path d="M388 1872 c-10 -2 -18 -8 -18 -14 0 -12 38 -48 51 -48 4 0 47 -19 96
-42 48 -23 90 -42 93 -42 19 -4 152 -86 219 -136 78 -58 232 -204 301 -285 69
-82 93 -59 56 55 -18 56 -65 162 -75 170 -3 3 -19 23 -35 45 -128 174 -361
293 -584 299 -48 1 -95 0 -104 -2z"/>
<path d="M1353 1278 c-30 -37 -51 -144 -49 -249 4 -124 27 -207 85 -296 63
-95 173 -192 206 -179 14 5 11 16 -20 68 -106 184 -161 343 -180 528 -3 30 -8
70 -10 89 -4 40 -18 57 -32 39z"/>
<path d="M816 1093 c-19 -20 -40 -51 -47 -70 -14 -43 -4 -125 18 -162 71 -113
256 -202 335 -160 66 36 51 201 -29 306 -65 85 -121 119 -195 121 -40 0 -51
-4 -82 -35z"/>
<path d="M934 470 c-83 -22 -156 -50 -166 -64 -4 -6 -8 -8 -8 -3 0 9 -76 -38
-107 -66 -13 -11 -23 -27 -23 -35 0 -15 31 -14 200 5 79 9 340 9 395 0 22 -3
56 -9 75 -12 37 -5 162 -38 295 -77 44 -13 86 -23 94 -23 28 0 21 24 -21 67
-173 179 -492 269 -734 208z"/>
</g>
</svg>
